<svg width="21" height="21" viewBox="0 0 21 21" fill="none" xmlns="http://www.w3.org/2000/svg">
<path d="M17.55 0C17.2715 0 17.0045 0.110625 16.8075 0.307538C16.6106 0.504451 16.5 0.771523 16.5 1.05V8.775L1.575 0.1605C1.41551 0.0684203 1.23462 0.0199061 1.05046 0.0198258C0.866298 0.0197455 0.685357 0.068102 0.525791 0.160043C0.366224 0.251983 0.233645 0.384274 0.141358 0.54364C0.0490707 0.703006 0.000320875 0.883841 6.56182e-07 1.068V19.9305C-0.000205483 20.1149 0.0481609 20.2961 0.140234 20.4559C0.232306 20.6157 0.364837 20.7484 0.524492 20.8407C0.684147 20.933 0.865294 20.9816 1.04971 20.9817C1.23412 20.9817 1.41529 20.9332 1.575 20.841L16.5 12.2235V19.95C16.5 20.2285 16.6106 20.4955 16.8075 20.6925C17.0045 20.8894 17.2715 21 17.55 21H19.95C20.2285 21 20.4955 20.8894 20.6925 20.6925C20.8894 20.4955 21 20.2285 21 19.95V1.05C21 0.771523 20.8894 0.504451 20.6925 0.307538C20.4955 0.110625 20.2285 0 19.95 0H17.55Z" fill="black"/>
</svg>
