<svg width="22" height="22" viewBox="0 0 22 22" fill="none" xmlns="http://www.w3.org/2000/svg">
<path d="M3.95 0.5C4.22848 0.5 4.49555 0.610625 4.69246 0.807538C4.88938 1.00445 5 1.27152 5 1.55V9.275L19.925 0.659C20.0846 0.566857 20.2656 0.518341 20.4499 0.518327C20.6342 0.518312 20.8152 0.5668 20.9749 0.658918C21.1345 0.751036 21.267 0.88354 21.3592 1.04311C21.4514 1.20269 21.4999 1.38371 21.5 1.568V20.4305C21.5002 20.6149 21.4518 20.7961 21.3598 20.9559C21.2677 21.1157 21.1352 21.2484 20.9755 21.3407C20.8159 21.433 20.6347 21.4816 20.4503 21.4817C20.2659 21.4817 20.0847 21.4332 19.925 21.341L5 12.7235V20.45C5 20.7285 4.88938 20.9955 4.69246 21.1925C4.49555 21.3894 4.22848 21.5 3.95 21.5H1.55C1.27152 21.5 1.00445 21.3894 0.807538 21.1925C0.610625 20.9955 0.5 20.7285 0.5 20.45V1.55C0.5 1.27152 0.610625 1.00445 0.807538 0.807538C1.00445 0.610625 1.27152 0.5 1.55 0.5H3.95Z" fill="black"/>
</svg>
